<?xml version="1.0" standalone="no"?>
<!DOCTYPE svg PUBLIC "-//W3C//DTD SVG 20010904//EN"
 "http://www.w3.org/TR/2001/REC-SVG-20010904/DTD/svg10.dtd">
<svg version="1.0" xmlns="http://www.w3.org/2000/svg"
 width="700.000000pt" height="700.000000pt" viewBox="0 0 700.000000 700.000000"
 preserveAspectRatio="xMidYMid meet">
<metadata>
Created by potrace 1.14, written by Peter Selinger 2001-2017
</metadata>
<g transform="translate(0.000000,700.000000) scale(0.100000,-0.100000)"
fill="#000000" stroke="none">
<path d="M3929 6996 c-2 -2 -41 -7 -85 -10 -45 -4 -93 -9 -105 -11 -13 -2 -51
-6 -84 -9 -33 -4 -78 -9 -100 -11 -96 -12 -132 -16 -155 -20 -14 -2 -47 -7
-75 -10 -27 -3 -75 -10 -105 -15 -30 -5 -71 -12 -90 -14 -43 -6 -89 -13 -155
-26 -27 -5 -63 -12 -80 -14 -25 -4 -312 -54 -405 -70 -35 -6 -217 -34 -265
-40 -55 -7 -233 -24 -330 -31 -120 -9 -167 -15 -187 -26 -44 -24 -66 -123 -63
-287 2 -99 13 -277 20 -322 2 -14 6 -56 10 -95 3 -38 8 -88 11 -110 2 -22 7
-62 10 -90 4 -42 30 -205 49 -310 3 -16 14 -70 25 -120 11 -49 22 -99 24 -110
3 -11 19 -83 36 -160 18 -77 33 -147 35 -155 36 -165 172 -706 219 -875 69
-245 100 -312 183 -405 39 -44 48 -49 53 -34 4 9 8 100 9 200 l2 183 -135 413
c-174 534 -195 600 -256 803 -27 94 -54 184 -60 200 -36 113 -112 464 -126
580 -2 17 -6 39 -8 50 -3 11 -8 47 -11 80 -4 33 -9 71 -11 85 -3 14 -8 99 -11
190 -4 129 -2 172 9 199 l14 34 249 3 c138 1 275 5 305 8 57 6 120 12 218 21
77 7 160 16 197 20 17 2 64 7 105 10 41 3 88 8 105 10 35 4 123 13 215 21 36
3 83 8 105 11 22 3 234 6 470 8 389 3 522 -1 648 -21 56 -8 39 -5 240 -53 99
-24 187 -41 200 -37 31 7 76 53 94 94 7 18 14 62 15 97 2 122 -18 131 -342
160 -71 7 -625 16 -631 11z"/>
<path d="M5348 6876 c-36 -13 -121 -59 -189 -102 -227 -145 -589 -410 -690
-505 -14 -13 -58 -53 -98 -89 -76 -67 -80 -71 -197 -180 -447 -416 -830 -789
-929 -905 -77 -90 -151 -253 -126 -278 7 -7 16 -6 28 5 10 8 56 35 103 59 143
73 226 144 430 369 52 57 100 109 105 116 6 6 42 46 80 89 39 43 81 90 95 105
145 159 217 236 280 304 134 144 463 471 535 532 38 32 79 67 90 77 66 60 276
212 420 305 59 37 143 66 161 54 10 -7 58 -84 104 -167 12 -22 41 -71 64 -108
22 -37 46 -76 51 -85 25 -43 129 -191 386 -553 250 -352 379 -538 379 -546 0
-4 8 -16 19 -27 10 -12 30 -41 43 -66 321 -586 317 -576 438 -965 17 -55 40
-111 50 -125 19 -25 20 -22 20 335 l0 361 -58 94 c-94 152 -310 455 -454 634
-58 74 -397 487 -517 631 -171 207 -156 188 -225 279 -32 43 -86 122 -120 175
-131 207 -153 220 -278 177z"/>
<path d="M1355 6171 c-33 -20 -45 -34 -119 -131 -192 -253 -357 -544 -506
-890 -34 -80 -71 -164 -81 -187 -11 -23 -19 -48 -19 -55 0 -8 -4 -18 -8 -23
-5 -6 -15 -26 -22 -45 -7 -19 -19 -48 -26 -65 -13 -32 -158 -421 -239 -640
-68 -185 -154 -393 -239 -574 -84 -177 -101 -228 -92 -265 8 -32 54 -78 124
-123 106 -68 552 -282 732 -350 299 -114 1409 -456 1650 -508 8 -2 56 -13 105
-25 73 -18 108 -21 190 -17 98 5 169 21 163 37 -5 14 -190 135 -228 150 -19 7
-39 17 -45 21 -29 21 -239 71 -790 189 -181 39 -357 77 -390 85 -330 79 -450
109 -510 126 -381 114 -811 298 -903 385 l-43 42 15 35 c8 19 45 86 81 149 79
131 186 346 305 608 304 672 376 815 566 1133 192 319 231 370 494 646 58 61
73 103 58 159 -12 44 -48 85 -103 117 -59 35 -85 38 -120 16z"/>
<path d="M4715 4773 c-68 -6 -135 -25 -135 -38 0 -25 177 -136 280 -177 57
-22 235 -71 309 -85 14 -2 61 -13 106 -23 81 -19 219 -48 265 -56 14 -3 176
-38 360 -79 529 -118 797 -194 1083 -310 15 -6 17 -1 17 35 l0 41 -87 41
c-139 64 -323 135 -528 203 -289 96 -1180 362 -1325 395 -191 43 -283 58 -345
53z"/>
<path d="M3605 4051 c-87 -25 -140 -56 -163 -93 -11 -18 -39 -47 -61 -63 -94
-70 -150 -182 -168 -337 -4 -32 0 -61 11 -89 9 -23 19 -60 22 -83 21 -169 154
-323 315 -366 41 -10 99 -26 129 -35 53 -16 153 -21 195 -11 115 27 225 108
336 244 92 114 124 248 89 368 -10 32 -25 90 -34 128 -15 64 -41 111 -103 186
-31 39 -132 108 -166 115 -17 4 -67 18 -110 31 -94 29 -203 31 -292 5z"/>
<path d="M5209 3373 c-1 -38 -1 -130 -1 -205 l0 -137 105 -318 c233 -705 371
-1154 412 -1343 30 -136 51 -257 79 -465 24 -169 29 -446 9 -480 -11 -19 -23
-20 -290 -22 -153 0 -291 -3 -306 -6 -15 -3 -60 -8 -100 -12 -40 -3 -88 -8
-107 -10 -19 -3 -64 -7 -100 -10 -36 -3 -76 -8 -90 -10 -14 -2 -61 -6 -105
-10 -44 -3 -91 -8 -105 -10 -14 -2 -56 -7 -95 -10 -38 -3 -88 -7 -110 -10
-126 -15 -238 -19 -581 -20 -424 -1 -552 6 -693 36 -109 23 -98 20 -211 49
-47 12 -108 24 -136 27 -45 4 -54 2 -83 -23 -40 -34 -57 -71 -66 -145 -7 -63
10 -120 42 -137 20 -11 62 -19 138 -28 28 -3 64 -7 80 -9 156 -20 578 -27 780
-11 60 4 112 9 115 11 3 1 39 6 80 9 41 4 89 9 105 11 49 7 188 26 215 30 14
2 45 7 70 10 42 6 295 47 368 59 17 3 47 8 65 11 17 3 59 10 92 16 33 6 71 13
85 15 14 3 61 11 105 19 44 8 94 17 110 19 17 2 77 11 135 19 156 23 210 29
400 42 173 11 219 27 247 83 16 32 18 63 18 227 0 167 -9 348 -20 425 -2 14
-6 54 -10 90 -4 36 -8 76 -10 90 -2 14 -6 45 -10 70 -11 90 -28 187 -47 275
-66 310 -80 376 -94 430 -9 33 -18 71 -21 85 -2 14 -29 126 -59 250 -30 124
-57 236 -60 250 -3 14 -10 43 -16 65 -5 22 -11 47 -13 56 -24 123 -129 465
-167 546 -30 61 -119 173 -139 173 -5 0 -10 -30 -10 -67z"/>
<path d="M365 2864 c-69 -34 -105 -75 -99 -111 12 -70 53 -171 148 -363 97
-195 136 -264 229 -405 74 -111 235 -340 264 -375 7 -8 47 -60 90 -115 93
-120 253 -317 419 -515 98 -118 203 -247 317 -390 34 -42 171 -236 222 -313
78 -118 95 -130 166 -124 73 6 152 44 309 148 180 119 561 396 590 428 3 3 39
35 80 71 41 36 84 74 96 85 11 11 50 47 85 79 398 368 977 931 1031 1004 50
67 98 169 105 222 3 22 3 40 -1 40 -3 0 -23 -10 -44 -23 -20 -13 -71 -40 -112
-61 -41 -21 -98 -56 -125 -77 -40 -30 -203 -188 -250 -243 -15 -17 -189 -210
-195 -216 -3 -3 -45 -50 -95 -105 -49 -55 -94 -105 -100 -111 -5 -6 -48 -53
-95 -104 -47 -51 -110 -121 -140 -154 -289 -319 -717 -694 -967 -848 -131 -80
-223 -102 -223 -53 0 8 -4 15 -10 15 -5 0 -10 4 -10 9 0 5 -23 49 -52 98 -28
48 -57 100 -65 115 -25 49 -217 331 -383 563 -218 305 -211 294 -348 495 -133
194 -307 496 -418 725 -66 135 -126 298 -183 501 -23 79 -54 118 -102 128 -54
10 -82 6 -134 -20z"/>
<path d="M6921 2598 c-237 -520 -545 -1050 -722 -1243 -54 -60 -100 -109 -159
-172 -107 -113 -115 -171 -37 -248 66 -64 140 -90 186 -66 40 22 252 324 373
531 108 184 285 565 393 843 l45 119 -2 199 -3 199 -74 -162z"/>
</g>
</svg>
